<svg xmlns="http://www.w3.org/2000/svg" width="720" height="380" viewBox="0 0 720 380" font-family="-apple-system, BlinkMacSystemFont, 'Segoe UI', Helvetica, Arial, sans-serif" role="img" aria-labelledby="title desc">
<title id="title">Projected balance of the demo plan, by month</title>
<desc id="desc">2026-09: month end 7,313, lowest day 4,113; 2026-10: month end 8,727, lowest day 6,666; 2026-11: month end 10,561, lowest day 8,090; 2026-12: month end 12,395, lowest day 9,914</desc>
<rect x="0.5" y="0.5" width="719" height="379" rx="12" fill="#fcfcfb" stroke="#e6e5e0"/>
<text x="24" y="40" font-size="18" font-weight="600" fill="#0b0b0b">Projected balance, month by month</text>
<text x="24" y="64" font-size="13" fill="#52514e">forecast_balance on the invented demo plan · scheduled payments on their dates</text>
<line x1="64" x2="594" y1="318.0" y2="318.0" stroke="#e6e5e0" stroke-width="1"/>
<text x="54" y="322.0" font-size="12" text-anchor="end" fill="#52514e">0</text>
<line x1="64" x2="594" y1="244.0" y2="244.0" stroke="#e6e5e0" stroke-width="1"/>
<text x="54" y="248.0" font-size="12" text-anchor="end" fill="#52514e">5k</text>
<line x1="64" x2="594" y1="170.0" y2="170.0" stroke="#e6e5e0" stroke-width="1"/>
<text x="54" y="174.0" font-size="12" text-anchor="end" fill="#52514e">10k</text>
<line x1="64" x2="594" y1="96.0" y2="96.0" stroke="#e6e5e0" stroke-width="1"/>
<text x="54" y="100.0" font-size="12" text-anchor="end" fill="#52514e">15k</text>
<text x="88.0" y="342" font-size="12" text-anchor="middle" fill="#52514e">Sep</text>
<line x1="88.0" x2="88.0" y1="257.1" y2="209.8" stroke="#52514e" stroke-width="1" stroke-dasharray="2 3"/>
<text x="240.7" y="342" font-size="12" text-anchor="middle" fill="#52514e">Oct</text>
<line x1="240.7" x2="240.7" y1="219.3" y2="188.8" stroke="#52514e" stroke-width="1" stroke-dasharray="2 3"/>
<text x="393.3" y="342" font-size="12" text-anchor="middle" fill="#52514e">Nov</text>
<line x1="393.3" x2="393.3" y1="198.3" y2="161.7" stroke="#52514e" stroke-width="1" stroke-dasharray="2 3"/>
<text x="546.0" y="342" font-size="12" text-anchor="middle" fill="#52514e">Dec</text>
<line x1="546.0" x2="546.0" y1="171.3" y2="134.6" stroke="#52514e" stroke-width="1" stroke-dasharray="2 3"/>
<polyline points="88.0,209.8 240.7,188.8 393.3,161.7 546.0,134.6" fill="none" stroke="#2a78d6" stroke-width="2" stroke-linejoin="round"/>
<circle cx="88.0" cy="209.8" r="5" fill="#2a78d6" stroke="#fcfcfb" stroke-width="2"/>
<rect x="83.0" y="252.1" width="10" height="10" rx="2" fill="#eb6834" stroke="#fcfcfb" stroke-width="2"/>
<circle cx="240.7" cy="188.8" r="5" fill="#2a78d6" stroke="#fcfcfb" stroke-width="2"/>
<rect x="235.7" y="214.3" width="10" height="10" rx="2" fill="#eb6834" stroke="#fcfcfb" stroke-width="2"/>
<circle cx="393.3" cy="161.7" r="5" fill="#2a78d6" stroke="#fcfcfb" stroke-width="2"/>
<rect x="388.3" y="193.3" width="10" height="10" rx="2" fill="#eb6834" stroke="#fcfcfb" stroke-width="2"/>
<circle cx="546.0" cy="134.6" r="5" fill="#2a78d6" stroke="#fcfcfb" stroke-width="2"/>
<rect x="541.0" y="166.3" width="10" height="10" rx="2" fill="#eb6834" stroke="#fcfcfb" stroke-width="2"/>
<text x="560.0" y="138.6" font-size="13" fill="#0b0b0b">Month end 12,395</text>
<text x="560.0" y="175.3" font-size="13" fill="#0b0b0b">Lowest day 9,914</text>
<text x="252.7" y="223.3" font-size="12" fill="#52514e"><tspan>Homesafe Insurance −420, 20 Oct</tspan><tspan x="252.7" dy="15">yearly, scheduled in YNAB</tspan></text>
<text x="24" y="362" font-size="12" fill="#52514e">The balance stays above zero until 2026-12.</text>
</svg>
